<?xml version="1.0" encoding="utf-8"?>
<svg xmlns="http://www.w3.org/2000/svg"
 version="1.1" width="230.0" height="150.0">

<line x1="10.0" y1="10.0" x2="10.0" y2="110.0" stroke-width="2" stroke="black"/>
<line x1="10.0" y1="110.0" x2="220.0" y2="110.0" stroke-width="2" stroke="black"/>
<line x1="40.0" y1="39.41176470588235" x2="70.0" y2="10.0" stroke-width="1" stroke="red"/>
<line x1="70.0" y1="10.0" x2="100.0" y2="15.882352941176464" stroke-width="1" stroke="red"/>
<line x1="100.0" y1="15.882352941176464" x2="130.0" y2="51.17647058823529" stroke-width="1" stroke="red"/>
<line x1="130.0" y1="51.17647058823529" x2="160.0" y2="39.41176470588235" stroke-width="1" stroke="red"/>
<line x1="160.0" y1="39.41176470588235" x2="190.0" y2="21.764705882352928" stroke-width="1" stroke="red"/>
<circle cx="40.0" cy="39.41176470588235" r="3" fill="black" />
<circle cx="70.0" cy="10.0" r="3" fill="black" />
<circle cx="100.0" cy="15.882352941176464" r="3" fill="black" />
<circle cx="130.0" cy="51.17647058823529" r="3" fill="black" />
<circle cx="160.0" cy="39.41176470588235" r="3" fill="black" />
<circle cx="190.0" cy="21.764705882352928" r="3" fill="black" />
<text x="40.0" y="125.0" fill="black" font-size="10" text-anchor="middle">janvier</text>
<text x="70.0" y="125.0" fill="black" font-size="10" text-anchor="middle">février</text>
<text x="100.0" y="125.0" fill="black" font-size="10" text-anchor="middle">mars</text>
<text x="130.0" y="125.0" fill="black" font-size="10" text-anchor="middle">avril</text>
<text x="160.0" y="125.0" fill="black" font-size="10" text-anchor="middle">mai</text>
<text x="190.0" y="125.0" fill="black" font-size="10" text-anchor="middle">juin</text>
</svg>
